<svg xmlns="http://www.w3.org/2000/svg" xmlns:xlink="http://www.w3.org/1999/xlink" id="svg1" width="170.667" height="170.667"><metadata><rdf:RDF xmlns:cc="http://web.resource.org/cc/" xmlns:dc="http://purl.org/dc/elements/1.1/" xmlns:rdf="http://www.w3.org/1999/02/22-rdf-syntax-ns#"><cc:Work><dc:title>Etiquette Icons</dc:title><dc:description/><dc:subject><rdf:Bag><rdf:li>hash</rdf:li><rdf:li/><rdf:li>mime-types</rdf:li><rdf:li>computer</rdf:li><rdf:li>icons</rdf:li></rdf:Bag></dc:subject><dc:publisher><cc:Agent rdf:about="http://www.openclipart.org"><dc:title>Andy Fitzsimon</dc:title></cc:Agent></dc:publisher><dc:creator><cc:Agent><dc:title>Andy Fitzsimon</dc:title></cc:Agent></dc:creator><dc:rights><cc:Agent><dc:title>Andy Fitzsimon</dc:title></cc:Agent></dc:rights><dc:date/><dc:format>image/svg+xml</dc:format><dc:type rdf:resource="http://purl.org/dc/dcmitype/StillImage"/><cc:license rdf:resource="http://web.resource.org/cc/PublicDomain"/><dc:language>en</dc:language></cc:Work><cc:License rdf:about="http://web.resource.org/cc/PublicDomain"><cc:permits rdf:resource="http://web.resource.org/cc/Reproduction"/><cc:permits rdf:resource="http://web.resource.org/cc/Distribution"/><cc:permits rdf:resource="http://web.resource.org/cc/DerivativeWorks"/></cc:License></rdf:RDF></metadata><defs id="defs3"><linearGradient id="linearGradient1501"><stop id="stop1502" offset="0" style="stop-color:#fff;stop-opacity:1"/><stop id="stop1504" offset="1" style="stop-color:#fff;stop-opacity:0"/></linearGradient><linearGradient id="linearGradient1290"><stop id="stop1291" offset="0" style="stop-color:#b2a269;stop-opacity:1"/><stop id="stop1292" offset="1" style="stop-color:#6d5b18;stop-opacity:1"/></linearGradient><linearGradient id="linearGradient846"><stop id="stop847" offset="0" style="stop-color:#e7e7e7;stop-opacity:1"/><stop id="stop848" offset="1" style="stop-color:#a5a5a5;stop-opacity:1"/></linearGradient><linearGradient id="linearGradient853"><stop id="stop854" offset="0" style="stop-color:#000;stop-opacity:.29752067"/><stop id="stop855" offset="1" style="stop-color:#000;stop-opacity:0"/></linearGradient><linearGradient id="linearGradient841"><stop id="stop842" offset="0" style="stop-color:#fff;stop-opacity:1"/><stop id="stop843" offset="1" style="stop-color:#fff;stop-opacity:0"/></linearGradient><linearGradient id="linearGradient1562" x1=".705" x2=".713" y1=".625" y2="1.875" xlink:href="#linearGradient1557"/><linearGradient id="linearGradient1557"><stop id="stop1558" offset="0" style="stop-color:#fff;stop-opacity:0"/><stop id="stop1559" offset="1" style="stop-color:#fff;stop-opacity:1"/></linearGradient><linearGradient id="linearGradient1636"><stop id="stop1637" offset="0" style="stop-color:#df421e;stop-opacity:0"/><stop id="stop1638" offset="1" style="stop-color:#fff;stop-opacity:1"/></linearGradient><linearGradient id="linearGradient1564" x1=".631" x2=".901" y1=".328" y2="1.016" xlink:href="#linearGradient1636"/><linearGradient id="linearGradient1507"><stop id="stop1508" offset="0" style="stop-color:#000;stop-opacity:.095505618"/><stop id="stop1510" offset="1" style="stop-color:#000;stop-opacity:0"/></linearGradient><linearGradient id="linearGradient852" x1=".718" x2="1.076" y1=".456" y2=".875" xlink:href="#linearGradient1636"/><linearGradient id="linearGradient844" x1=".45" x2="-.481" y1=".412" y2="-.363" xlink:href="#linearGradient1557"/><linearGradient id="linearGradient845" x1="-.204" x2=".547" y1="-.851" y2=".514" xlink:href="#linearGradient841"/><linearGradient id="linearGradient840" x1="1.677" x2=".371" y1="1.106" y2=".546" xlink:href="#linearGradient853"/><linearGradient id="linearGradient849" x1=".316" x2=".516" y1="-.004" y2=".408" xlink:href="#linearGradient853"/><radialGradient id="radialGradient864" cx=".5" cy=".5" r=".5" fx=".5" fy=".149" xlink:href="#linearGradient853"/><linearGradient id="linearGradient860" x1=".915" x2=".757" y1="-.107" y2=".361" xlink:href="#linearGradient1501"/><linearGradient id="linearGradient851" x1=".398" x2=".81" y1=".322" y2=".356" xlink:href="#linearGradient846"/><linearGradient id="linearGradient858" x1=".643" x2=".571" y1="1.265" y2=".049" xlink:href="#linearGradient846"/><linearGradient id="linearGradient850" xlink:href="#linearGradient846"/><linearGradient id="linearGradient859" x1="1.465" x2=".264" y1="-1.149" y2="1.291" xlink:href="#linearGradient853"/><radialGradient id="radialGradient861" cx=".5" cy=".5" r=".5" fx=".507" fy=".299" xlink:href="#linearGradient853"/><linearGradient id="linearGradient1492"><stop id="stop1493" offset="0" style="stop-color:#cbcbcb;stop-opacity:1"/><stop id="stop1496" offset=".349" style="stop-color:#f0f0f0;stop-opacity:1"/><stop id="stop1494" offset="1" style="stop-color:#e2e2e2;stop-opacity:1"/></linearGradient><linearGradient id="linearGradient1495" x1=".923" x2=".145" y1=".164" y2="1.172" xlink:href="#linearGradient1492"/><linearGradient id="linearGradient1497" x1=".632" x2="-.376" y1=".328" y2="1.328" xlink:href="#linearGradient1492"/><linearGradient id="linearGradient1499" x1=".858" x2=".063" y1=".141" y2=".547" xlink:href="#linearGradient1501"/><linearGradient id="linearGradient1506" x1=".052" x2=".783" y1=".977" y2=".008" xlink:href="#linearGradient1507"/><linearGradient id="linearGradient1556" x1=".311" x2=".622" y1="-.563" y2=".797" xlink:href="#linearGradient1507"/><radialGradient id="radialGradient856" cx=".5" cy=".893" r=".546" fx=".541" fy="3.52" xlink:href="#linearGradient841"/><linearGradient id="linearGradient1944" xlink:href="#linearGradient841"/><linearGradient id="linearGradient1560" x1=".507" x2=".162" y1=".556" y2="-.199" xlink:href="#linearGradient1557"/></defs><g id="g1694"><path id="path930" d="M 17.159384,6.3292894 L 17.159384,43.068526 L 17.159384,79.807768 L 17.159384,116.54700 L 17.159384,153.28624 L 50.687024,153.28624 L 84.214664,153.28624 L 117.74230,153.28624 L 151.26994,153.28624 L 151.26994,116.54700 L 151.26994,79.807768 L 151.26994,43.068526 L 117.74230,6.3292894 L 84.214664,6.3292894 L 50.687024,6.3292894 L 17.159384,6.3292894 z" style="fill:#fff;fill-rule:evenodd;stroke-width:.42649043;stroke-opacity:.36477986"/><g id="g1552" transform="matrix(0.304171,0.000000,0.000000,0.297572,-36.70399,-112.4880)" style="fill:#000;fill-opacity:.069182344"><path id="path1505" d="M 173.35959,408.81260 L 173.35959,531.07360 L 173.35959,653.33460 L 173.35959,775.59560 L 173.35959,897.85660 L 282.12187,897.85660 L 390.88417,897.85660 L 499.64646,897.85660 L 608.40874,897.85660 L 608.40874,775.59560 L 608.40874,653.33460 L 608.40874,531.07360 L 499.64646,408.81260 L 390.88417,408.81260 L 282.12187,408.81260 L 173.35959,408.81260 z" style="fill-opacity:.069182344;fill-rule:evenodd;stroke-width:.95407495pt;fill:#000"/><path id="path1538" d="M 170.12500,407.18750 C 170.12500,571.82292 170.12500,736.45833 170.12500,901.09375 C 317.30208,901.09375 464.47917,901.09375 611.65625,901.09375 C 611.65625,777.33333 611.65625,653.57292 611.65625,529.81250 C 574.80918,488.38978 537.97604,446.95335 501.09375,405.56250 C 390.77083,405.56250 280.44792,405.56250 170.12500,405.56250 C 170.12500,405.89583 170.12500,406.97917 170.12500,407.18750 z" style="fill-opacity:.069182344;fill-rule:evenodd;stroke-width:.95407495pt;fill:#000"/><path id="path1543" d="M 166.87500,403.93750 C 166.87500,570.73958 166.87500,737.54167 166.87500,904.34375 C 316.21875,904.34375 465.56250,904.34375 614.90625,904.34375 C 614.90625,779.08333 614.90625,653.82292 614.90625,528.56250 C 577.45517,486.47298 540.01754,444.37017 502.53125,402.31250 C 390.64583,402.31250 278.76042,402.31250 166.87500,402.31250 C 166.87500,402.64583 166.87500,403.72917 166.87500,403.93750 z" style="fill-opacity:.069182344;fill-rule:evenodd;stroke-width:.95407495pt;fill:#000"/></g><path id="rect900" d="M 297.99034,136.74154 L 297.99034,260.57234 L 297.99034,384.40315 L 297.99034,508.23395 L 297.99034,632.06475 L 410.99634,632.06475 L 524.00235,632.06475 L 637.00835,632.06475 L 750.01435,632.06475 L 750.01435,508.23395 L 750.01435,384.40315 L 750.01435,260.57234 L 637.00835,136.74154 L 524.00235,136.74154 L 410.99634,136.74154 L 297.99034,136.74154 z" transform="matrix(0.296689,0.000000,0.000000,0.296689,-71.19601,-34.05825)" style="fill:url(#linearGradient1495);fill-opacity:1;fill-rule:evenodd;stroke:#000;stroke-width:1.4375;stroke-opacity:.36477986"/><path id="path906" d="M 750.01435,260.57234 C 715.94460,250.48602 671.79788,251.91624 638.44792,257.66516 C 644.20618,220.71628 644.92597,174.41021 637.00835,136.74154 L 750.01435,260.57234 z" transform="matrix(0.296689,0.000000,0.000000,0.296689,-71.19601,-34.05825)" style="fill:url(#linearGradient1497);fill-opacity:1;fill-rule:evenodd;stroke-width:.95407495pt"/><path id="path1500" d="M 301.30655,174.90867 L 299.27069,628.90434 L 743.08709,628.90434 L 743.34157,516.67783 C 733.41677,520.49506 633.15091,378.49417 506.92790,384.60173 C 380.59029,390.71484 413.27857,193.23136 301.30655,174.90867 z" transform="matrix(0.296689,0.000000,0.000000,0.296689,-71.19601,-34.05825)" style="fill:url(#linearGradient1499);fill-opacity:1;fill-rule:evenodd;stroke-width:1pt"/></g><g id="g1752"><path id="path1600" d="M -35.440849,-36.609712 L 67.164717,-36.609712" transform="translate(70.64229,106.4429)" style="fill:none;fill-opacity:.75;fill-rule:evenodd;stroke:#000;stroke-width:.225;stroke-miterlimit:4;stroke-dasharray:none"/><path id="path1601" d="M -35.467684,-34.337064 C -20.490603,-34.337064 54.394802,-34.337064 54.394802,-34.337064" transform="translate(70.64229,106.4429)" style="fill:none;fill-opacity:.75;fill-rule:evenodd;stroke:#000;stroke-width:.225;stroke-miterlimit:4;stroke-dasharray:none"/><path id="path1602" d="M -35.436182,-38.882361 C -17.965889,-38.882361 69.385572,-38.882361 69.385572,-38.882361" transform="translate(70.64229,106.4429)" style="fill:none;fill-opacity:.75;fill-rule:evenodd;stroke:#000;stroke-width:.225;stroke-miterlimit:4;stroke-dasharray:none"/><path id="path1605" d="M -35.447850,-41.155009 C -18.900968,-41.155009 63.833435,-41.155009 63.833435,-41.155009" transform="translate(70.64229,106.4429)" style="fill:none;fill-opacity:.75;fill-rule:evenodd;stroke:#000;stroke-width:.225;stroke-miterlimit:4;stroke-dasharray:none"/><path id="path1606" d="M -35.436571,-43.427658 C -17.997059,-43.427658 69.200501,-43.427658 69.200501,-43.427658" transform="translate(70.64229,106.4429)" style="fill:none;fill-opacity:.75;fill-rule:evenodd;stroke:#000;stroke-width:.225;stroke-miterlimit:4;stroke-dasharray:none"/><path id="path1607" d="M -35.437823,-45.700307 C -18.097021,-45.700307 68.606982,-45.700307 68.606982,-45.700307" transform="translate(70.64229,106.4429)" style="fill:none;fill-opacity:.75;fill-rule:evenodd;stroke:#000;stroke-width:.225;stroke-miterlimit:4;stroke-dasharray:none"/><path id="path1608" d="M -35.449016,-47.972954 C -18.994476,-47.972954 63.278221,-47.972954 63.278221,-47.972954" transform="translate(70.64229,106.4429)" style="fill:none;fill-opacity:.75;fill-rule:evenodd;stroke:#000;stroke-width:.225;stroke-miterlimit:4;stroke-dasharray:none"/><path id="path1609" d="M -35.444404,-50.245603 C -18.651391,-50.245603 65.313671,-50.245603 65.313671,-50.245603" transform="translate(70.64229,106.4429)" style="fill:none;fill-opacity:.75;fill-rule:evenodd;stroke:#000;stroke-width:.225;stroke-miterlimit:4;stroke-dasharray:none"/><path id="path1610" d="M -35.433071,-52.518251 C -17.716535,-52.518251 70.866142,-52.518251 70.866142,-52.518251" transform="translate(70.64229,106.4429)" style="fill:none;fill-opacity:.75;fill-rule:evenodd;stroke:#000;stroke-width:.225;stroke-miterlimit:4;stroke-dasharray:none"/></g><path id="path1622" d="M -35.440849,-36.609712 L 67.164717,-36.609712" transform="matrix(0.497826,0.000000,0.000000,1.000000,53.14573,155.6114)" style="fill:none;fill-opacity:.75;fill-rule:evenodd;stroke:#000;stroke-width:.31889208;stroke-miterlimit:4;stroke-dasharray:none"/><path id="path1623" d="M -35.467684,-34.337064 C -20.490603,-34.337064 54.394802,-34.337064 54.394802,-34.337064" transform="matrix(0.497826,0.000000,0.000000,1.000000,53.14573,155.6114)" style="fill:none;fill-opacity:.75;fill-rule:evenodd;stroke:#000;stroke-width:.31889208;stroke-miterlimit:4;stroke-dasharray:none"/><path id="path1624" d="M -35.436182,-38.882361 C -17.965889,-38.882361 69.385572,-38.882361 69.385572,-38.882361" transform="matrix(0.497826,0.000000,0.000000,1.000000,53.14573,155.6114)" style="fill:none;fill-opacity:.75;fill-rule:evenodd;stroke:#000;stroke-width:.31889208;stroke-miterlimit:4;stroke-dasharray:none"/><path id="path1625" d="M -35.447850,-41.155009 C -18.900968,-41.155009 63.833435,-41.155009 63.833435,-41.155009" transform="matrix(0.497826,0.000000,0.000000,1.000000,53.14573,155.6114)" style="fill:none;fill-opacity:.75;fill-rule:evenodd;stroke:#000;stroke-width:.31889208;stroke-miterlimit:4;stroke-dasharray:none"/><path id="path1626" d="M -35.436571,-43.427658 C -17.997059,-43.427658 69.200501,-43.427658 69.200501,-43.427658" transform="matrix(0.497826,0.000000,0.000000,1.000000,53.14573,155.6114)" style="fill:none;fill-opacity:.75;fill-rule:evenodd;stroke:#000;stroke-width:.31889208;stroke-miterlimit:4;stroke-dasharray:none"/><path id="path1627" d="M -35.437823,-45.700307 C -18.097021,-45.700307 77.534953,-45.700307 77.534953,-45.700307" transform="matrix(0.497826,0.000000,0.000000,1.000000,53.14573,155.6114)" style="fill:none;fill-opacity:.75;fill-rule:evenodd;stroke:#000;stroke-width:.31889208;stroke-miterlimit:4;stroke-dasharray:none"/><path id="path1628" d="M -35.449016,-47.972954 C -18.994476,-47.972954 71.394558,-47.972954 71.394558,-47.972954" transform="matrix(0.497826,0.000000,0.000000,1.000000,53.14573,155.6114)" style="fill:none;fill-opacity:.75;fill-rule:evenodd;stroke:#000;stroke-width:.31889208;stroke-miterlimit:4;stroke-dasharray:none"/><path id="path1629" d="M -35.444404,-50.245603 C -18.651391,-50.245603 80.734711,-50.245603 80.734711,-50.245603" transform="matrix(0.497826,0.000000,0.000000,1.000000,53.14573,155.6114)" style="fill:none;fill-opacity:.75;fill-rule:evenodd;stroke:#000;stroke-width:.31889208;stroke-miterlimit:4;stroke-dasharray:none"/><path id="path1630" d="M -35.433071,-52.518251 C -17.716535,-52.518251 89.533721,-52.518251 89.533721,-52.518251" transform="matrix(0.497826,0.000000,0.000000,1.000000,53.14573,155.6114)" style="fill:none;fill-opacity:.75;fill-rule:evenodd;stroke:#000;stroke-width:.31889208;stroke-miterlimit:4;stroke-dasharray:none"/><g id="g1762"><path id="path1632" d="M -35.440849,-36.609712 L 67.164717,-36.609712" transform="matrix(0.994817,0.000000,0.000000,-1.000000,70.92836,44.12770)" style="fill:none;fill-opacity:.75;fill-rule:evenodd;stroke:#000;stroke-width:.22558536;stroke-miterlimit:4;stroke-dasharray:none"/><path id="path1633" d="M 35.676052,81.087564 C 53.311594,81.087564 141.48930,81.087564 141.48930,81.087564" transform="translate(6.149155e-3,-2.622803)" style="fill:none;fill-opacity:.75;fill-rule:evenodd;stroke:#000;stroke-width:.225;stroke-miterlimit:4;stroke-dasharray:none"/><path id="path1634" d="M -35.436182,-38.882361 C -17.965889,-38.882361 69.385572,-38.882361 69.385572,-38.882361" transform="matrix(0.994817,0.000000,0.000000,-1.000000,70.92836,44.12770)" style="fill:none;fill-opacity:.75;fill-rule:evenodd;stroke:#000;stroke-width:.22558536;stroke-miterlimit:4;stroke-dasharray:none"/><path id="path1636" d="M 35.634975,87.905509 C 50.332995,87.905509 123.82309,87.905509 123.82309,87.905509" transform="translate(6.149155e-3,-2.622803)" style="fill:none;fill-opacity:.75;fill-rule:evenodd;stroke:#000;stroke-width:.225;stroke-miterlimit:4;stroke-dasharray:none"/><path id="path1637" d="M -35.436571,-43.427658 C -17.997059,-43.427658 69.200501,-43.427658 69.200501,-43.427658" transform="matrix(0.994817,0.000000,0.000000,-1.000000,70.92836,44.12770)" style="fill:none;fill-opacity:.75;fill-rule:evenodd;stroke:#000;stroke-width:.22558536;stroke-miterlimit:4;stroke-dasharray:none"/><path id="path1638" d="M -35.437823,-45.700307 C -18.097021,-45.700307 68.606982,-45.700307 68.606982,-45.700307" transform="matrix(0.994817,0.000000,0.000000,-1.000000,70.92836,44.12770)" style="fill:none;fill-opacity:.75;fill-rule:evenodd;stroke:#000;stroke-width:.22558536;stroke-miterlimit:4;stroke-dasharray:none"/><path id="path1639" d="M -35.449016,-47.972954 C -18.994476,-47.972954 63.278221,-47.972954 63.278221,-47.972954" transform="matrix(0.994817,0.000000,0.000000,-1.000000,70.92836,44.12770)" style="fill:none;fill-opacity:.75;fill-rule:evenodd;stroke:#000;stroke-width:.22558536;stroke-miterlimit:4;stroke-dasharray:none"/><path id="path1640" d="M 35.673644,96.996103 C 53.311834,96.996103 141.50278,96.996103 141.50278,96.996103" transform="translate(6.149155e-3,-2.622803)" style="fill:none;fill-opacity:.75;fill-rule:evenodd;stroke:#000;stroke-width:.225;stroke-miterlimit:4;stroke-dasharray:none"/><path id="path1641" d="M 35.598477,99.268751 C 47.357107,99.268751 106.15025,99.268751 106.15025,99.268751" transform="translate(6.149155e-3,-2.622803)" style="fill:none;fill-opacity:.75;fill-rule:evenodd;stroke:#000;stroke-width:.225;stroke-miterlimit:4;stroke-dasharray:none"/></g><path id="path1668" d="M 35.591371,39.041426 C 44.407759,39.041426 88.489695,39.041426 88.489695,39.041426" style="fill:none;fill-opacity:.75;fill-rule:evenodd;stroke:#000;stroke-width:.225;stroke-miterlimit:4;stroke-dasharray:none"/><path id="path1669" d="M 35.613879,36.768777 C 46.500369,36.768777 100.93282,36.768777 100.93282,36.768777" style="fill:none;fill-opacity:.75;fill-rule:evenodd;stroke:#000;stroke-width:.225;stroke-miterlimit:4;stroke-dasharray:none"/><path id="path1690" d="M 35.791856,21.998602 C 43.053392,21.998602 79.361072,21.998602 79.361072,21.998602" style="fill:none;fill-opacity:.75;fill-rule:evenodd;stroke:#000;stroke-width:.625;stroke-miterlimit:4;stroke-dasharray:none"/><path id="path1730" d="M 40.045850,126.82742 C 39.812170,127.81187 39.430347,128.75101 39.098931,129.70667 C 38.356059,131.94358 39.681354,131.37384 41.357426,130.64378 C 42.578775,130.02673 46.908785,126.56236 47.761141,126.57415 C 48.480083,126.58410 48.376979,126.63852 48.753816,127.11117 C 48.777673,130.41210 43.502023,135.98063 41.406044,138.22357 C 39.313619,140.35732 37.091746,142.60955 34.468355,144.09777 C 33.759075,144.50016 32.471455,145.11128 32.394489,143.85428 C 34.889247,141.02802 42.742795,137.22788 46.313802,135.90538 C 50.454503,134.67192 53.395087,136.20874 50.186433,140.30502 C 48.630629,141.84692 47.136302,140.81070 47.279395,138.76450 C 47.423671,136.70141 48.415289,134.78517 49.351927,132.98631 C 49.932086,131.97029 54.614985,124.49477 55.412071,129.03880 C 55.783581,131.02851 57.834214,130.18888 59.321897,130.73140 C 60.886836,131.81451 59.164352,134.65698 60.216816,134.80895 C 62.195153,134.99257 64.298884,134.03452 66.074590,133.26623 C 67.819569,132.48313 69.382710,132.18328 67.363196,134.28722 C 66.301749,135.52006 67.299109,135.11959 68.403252,134.91799 C 70.169302,134.54500 71.907839,134.05191 73.654937,133.60044 C 75.770428,133.09672 79.638137,132.69032 76.935028,133.54944 C 75.150323,133.95115 70.516054,135.21948 68.735006,135.63601 C 67.092425,135.98762 64.547206,135.93835 66.339051,133.87084 C 66.609177,133.58024 66.937631,132.67062 67.153897,133.00324 C 67.702965,133.84774 68.595084,133.12469 66.717443,133.92246 C 64.553842,134.81357 61.984125,135.91134 59.611055,135.49936 C 57.493162,134.56084 59.896480,132.68286 58.680429,131.40631 C 56.956451,130.47992 54.774384,131.80984 54.259569,129.13466 C 54.146666,128.60540 54.014641,128.64605 54.301313,128.38585 C 54.670182,128.05105 53.368959,128.78743 53.002211,129.12453 C 51.759572,130.26676 50.853436,131.68699 50.009643,133.13270 C 49.039119,135.02509 47.601405,137.68508 48.424381,139.88251 C 48.653917,140.49540 48.564118,140.54340 49.261186,139.97484 C 51.993507,136.87523 50.104982,135.55978 46.723566,136.40854 C 43.305086,137.53946 35.711628,141.07662 33.604961,144.03281 C 33.342509,143.75825 33.486113,143.83845 32.932158,143.80122 C 32.640105,143.78161 33.514150,143.69412 33.779382,143.57031 C 34.449731,143.25736 35.079317,142.84944 35.685268,142.42819 C 37.553575,141.12939 39.223297,139.59100 40.835316,137.99213 C 42.892536,135.82310 47.693539,130.62152 47.574121,127.35645 C 47.775595,127.41193 47.781923,127.43132 48.047955,127.37564 C 48.155164,127.35319 47.824018,127.38654 47.724134,127.43148 C 47.249406,127.64514 46.817828,127.96943 46.400825,128.27505 C 44.956162,129.33387 43.536934,130.36101 41.953884,131.20881 C 39.810448,132.22102 36.905981,132.71777 37.984010,129.54090 C 38.228909,128.82814 38.878806,127.61342 38.692233,126.82742 L 40.045850,126.82742 z" style="stroke-width:1pt"/><g id="g2308" transform="matrix(1.068061,0.000000,0.000000,1.068061,-10.04078,-10.87309)"><g id="g2300" transform="translate(-42.02145,-76.76995)" style="fill-opacity:.079545446"><path id="path2299" d="M 165.98017,227.75087 C 158.48622,229.01119 159.04474,221.66925 155.03853,220.23456 C 151.03232,218.79985 146.70461,224.90948 141.94292,219.14265 C 137.34349,213.57233 143.74204,210.09559 142.98142,205.90876 C 142.22081,201.72192 135.80680,202.35210 138.84535,194.20494 C 141.58795,186.85132 146.11378,191.05622 149.35937,188.30410 C 152.60497,185.55198 149.43452,180.00855 156.66953,178.79177 C 165.37577,177.32757 163.78822,183.59053 167.79443,185.02523 C 171.80064,186.45994 175.37675,179.44003 180.89005,186.11713 C 186.45560,192.85751 179.09093,195.16420 179.85154,199.35103 C 180.61215,203.53786 188.09719,204.15031 185.45373,211.23811 C 182.90735,218.06567 176.71918,214.20356 173.47359,216.95569 C 170.22800,219.70781 173.61505,226.46685 165.98017,227.75087 z" style="fill-rule:evenodd;stroke-width:25"/><path id="path2277" d="M 165.60336,225.41512 C 158.82336,226.55537 159.32867,219.91289 155.70413,218.61488 C 152.07959,217.31686 148.16418,222.84443 143.85613,217.62700 C 139.69489,212.58736 145.48385,209.44185 144.79570,205.65390 C 144.10755,201.86594 138.30460,202.43608 141.05367,195.06510 C 143.53498,188.41206 147.62964,192.21636 150.56602,189.72643 C 153.50241,187.23650 150.63401,182.22119 157.17974,181.12034 C 165.05654,179.79563 163.62024,185.46192 167.24478,186.75994 C 170.86932,188.05796 174.10473,181.70684 179.09278,187.74781 C 184.12810,193.84604 177.46506,195.93297 178.15321,199.72092 C 178.84136,203.50887 185.61330,204.06298 183.22168,210.47552 C 180.91789,216.65262 175.31927,213.15846 172.38289,215.64839 C 169.44650,218.13832 172.51087,224.25343 165.60336,225.41512 z" style="fill-rule:evenodd;stroke-width:25"/><path id="path2298" d="M 165.80955,226.69326 C 158.63888,227.89921 159.17330,220.87398 155.33991,219.50118 C 151.50652,218.12836 147.36550,223.97444 142.80921,218.45637 C 138.40819,213.12634 144.53072,209.79958 143.80292,205.79336 C 143.07512,201.78713 136.93779,202.39013 139.84527,194.59442 C 142.46955,187.55802 146.80015,191.58153 149.90573,188.94812 C 153.01132,186.31472 149.97764,181.01042 156.90055,179.84613 C 165.23122,178.44509 163.71216,184.43788 167.54555,185.81070 C 171.37895,187.18351 174.80079,180.46643 180.07626,186.85549 C 185.40172,193.30511 178.35474,195.51229 179.08255,199.51851 C 179.81035,203.52473 186.97250,204.11077 184.44307,210.89281 C 182.00653,217.42585 176.08531,213.73035 172.97973,216.36375 C 169.87414,218.99716 173.11508,225.46463 165.80955,226.69326 z" style="fill-rule:evenodd;stroke-width:25"/></g><g id="g2231" transform="matrix(0.744803,0.000000,0.000000,0.744803,-15.81411,33.32497)"><path id="path64" d="M 192.44720,114.50882 C 192.44720,114.50882 180.42572,131.10727 180.42572,138.55179 C 180.42572,146.00136 194.16672,141.99589 199.60345,147.42755 C 205.04017,152.86934 186.71714,167.18183 186.71714,167.18183 L 205.04017,162.02326 L 212.48975,169.75100 C 212.48975,160.30374 223.36825,152.86428 217.64326,147.13422 C 211.91826,141.40417 195.59797,142.01612 194.74833,134.53619 C 193.88856,127.06133 192.45226,114.50376 192.45226,114.50376 L 192.44720,114.50882 z" style="fill:#22364b"/><path id="path1357" d="M 426.11179,669.43739 C 357.89354,708.82322 336.72344,635.49297 292.61702,636.07033 C 248.51061,636.64769 228.60937,711.66257 161.47330,672.90154 C 96.624879,635.46129 146.17585,578.51674 123.62264,540.60814 C 101.06943,502.69954 41.057317,532.05336 41.057317,441.91916 C 41.057317,360.56417 100.24493,385.00957 121.79813,346.52362 C 143.35133,308.03767 92.479115,265.68250 158.34018,227.65760 C 237.59405,181.90035 244.86159,248.47865 288.96800,247.90129 C 333.07442,247.32393 342.37863,166.19086 420.11172,211.07008 C 498.58166,256.37472 435.40917,305.45488 457.96238,343.36348 C 480.51559,381.27208 555.43100,360.10752 555.43100,438.52167 C 555.43100,514.05671 481.34009,498.96205 459.78689,537.44800 C 438.23369,575.93395 495.61291,629.31090 426.11179,669.43739 z" transform="matrix(0.109798,4.095008e-2,-4.095008e-2,0.109798,168.5971,62.92562)" style="fill:#ac0000;fill-rule:evenodd;stroke-width:25"/><path id="path1358" d="M 506.72753,587.14782 C 438.50928,626.53365 417.33918,553.20340 373.23276,553.78076 C 329.12635,554.35812 309.22511,629.37300 242.08904,590.61197 C 177.24062,553.17172 226.79159,496.22717 204.23838,458.31857 C 181.68517,420.40997 106.76976,453.29458 106.76976,363.16038 C 106.76976,281.80540 180.86067,302.72001 202.41387,264.23406 C 223.96707,225.74811 170.22791,170.26957 236.08897,132.24467 C 315.34284,86.487416 325.47733,166.18909 369.58374,165.61173 C 413.69016,165.03437 422.99437,83.901296 500.72746,128.78052 C 579.19740,174.08516 516.02491,223.16532 538.57812,261.07392 C 561.13133,298.98252 636.04674,277.81796 636.04674,356.23210 C 636.04674,431.76714 561.95583,416.67248 540.40263,455.15843 C 518.84943,493.64438 576.22865,547.02133 506.72753,587.14782 z" transform="matrix(0.109798,4.095008e-2,-4.095008e-2,0.109798,156.6811,66.88409)" style="fill:url(#linearGradient852);fill-rule:evenodd;stroke-width:25"/><path id="path1958" d="M 127.50617,348.72618 C 114.51637,350.91079 115.48449,338.18448 108.54024,335.69761 C 101.59600,333.21073 94.094461,343.80101 85.840689,333.80494 C 77.868168,324.14951 88.959231,318.12302 87.640812,310.86569 C 86.322383,303.60837 72.663184,304.38302 77.930126,290.26097 C 82.684056,277.51443 93.070343,285.12075 98.696162,280.35029 C 104.32197,275.57983 99.144082,263.74735 111.68502,261.63823 C 126.77617,259.10022 123.70670,272.17993 130.65094,274.66680 C 137.59519,277.15368 143.79392,264.98559 153.35050,276.55947 C 162.99767,288.24305 150.23195,292.24139 151.55038,299.49872 C 152.86881,306.75605 165.84315,307.81766 161.26107,320.10344 C 156.84722,331.93812 146.12085,325.24366 140.49504,330.01412 C 134.86922,334.78458 140.74024,346.50049 127.50617,348.72618 z" transform="matrix(0.618772,0.000000,0.000000,0.618772,108.5096,-66.92548)" style="fill:url(#linearGradient849);fill-rule:evenodd;stroke-width:25"/><path id="path1359" d="M 460.66139 450.62323 A 166.98976 166.98976 0 1 0 126.68187,450.62323 A 166.98976 166.98976 0 1 0 460.66139 450.62323 z" transform="matrix(0.108835,4.059093e-2,-4.059093e-2,0.108835,168.7180,63.46510)" style="fill:#cb0000;fill-rule:evenodd;stroke:#000;stroke-width:19.772703;stroke-opacity:.069182344"/><path id="path1360" d="M 460.66139 450.62323 A 166.98976 166.98976 0 1 0 126.68187,450.62323 A 166.98976 166.98976 0 1 0 460.66139 450.62323 z" transform="matrix(8.819373e-2,3.289260e-2,-3.289260e-2,8.819373e-2,171.3744,71.37675)" style="fill:url(#linearGradient845);fill-opacity:1;fill-rule:evenodd;stroke-width:1pt"/><path id="path1957" d="M 460.66139 450.62323 A 166.98976 166.98976 0 1 0 126.68187,450.62323 A 166.98976 166.98976 0 1 0 460.66139 450.62323 z" transform="matrix(8.720283e-2,3.252287e-2,-3.252287e-2,8.720283e-2,172.8277,76.96071)" style="fill:url(#linearGradient840);fill-opacity:1;fill-rule:evenodd;stroke-width:1pt"/><path id="path1361" d="M 460.66139 450.62323 A 166.98976 166.98976 0 1 0 126.68187,450.62323 A 166.98976 166.98976 0 1 0 460.66139 450.62323 z" transform="matrix(8.819373e-2,3.289260e-2,-3.289260e-2,8.819373e-2,170.3376,77.84625)" style="fill:url(#linearGradient1562);fill-opacity:1;fill-rule:evenodd;stroke-width:1pt"/><path id="path1956" d="M 460.66139 450.62323 A 166.98976 166.98976 0 1 0 126.68187,450.62323 A 166.98976 166.98976 0 1 0 460.66139 450.62323 z" transform="matrix(6.781695e-2,2.529282e-2,-2.529282e-2,6.781695e-2,170.1008,82.30664)" style="fill:url(#linearGradient844);fill-opacity:1;fill-rule:evenodd;stroke-width:1pt"/><path id="path1970" d="M 200.26806,147.94862 C 215.05407,168.88585 222.35996,153.00263 217.03797,147.67593 C 211.71598,142.34925 195.21405,142.89931 200.26806,147.94862 z" style="fill:url(#linearGradient860)"/></g><path id="path2304" d="M 111.61946,109.49346 C 111.61946,109.49346 112.73061,102.62456 117.98329,103.83672 C 123.23597,105.04888 122.02381,106.36205 122.02381,106.36205 C 119.80152,105.85698 115.76100,104.44280 111.61946,109.49346 z" style="fill:url(#linearGradient1560);fill-rule:evenodd;stroke-width:1pt"/><path id="path2305" d="M 101.69754,123.26086 C 101.69754,123.26086 97.897851,117.43174 102.59929,114.79423 C 107.30073,112.15672 107.28755,113.94378 107.28755,113.94378 C 105.30370,115.06540 101.36307,116.73785 101.69754,123.26086 z" style="fill:url(#linearGradient1560);fill-rule:evenodd;stroke-width:1pt"/><path id="path2306" d="M 103.63533,141.13797 C 103.63533,141.13797 105.79623,129.83650 103.87698,129.43245 C 100.20298,134.43495 99.612105,137.71781 103.63533,141.13797 z" style="fill:url(#linearGradient1560);fill-rule:evenodd;stroke-width:1pt"/><path id="path2307" d="M 129.03773,109.51665 C 133.73917,106.87914 133.72599,108.66620 133.72599,108.66620 C 127.49959,115.04050 126.25554,110.84099 129.03773,109.51665 z" style="fill:url(#linearGradient1560);fill-rule:evenodd;stroke-width:1pt"/></g></svg>